PathFileType  4	(X/Y/Z) C:\Users\antoi\Documents\MyRepositories\mobilecap\ResultsAnalysis
DataRate	CameraRate	NumFrames	NumMarkers	Units	OrigDataRate	OrigDataStartFrame	OrigNumFrames
100.0	100.0	4	51	mm	100.0	182	242
Frame#	Time	r_knee			r_shank_antsup			r_ankle			r_calc			r_5meta			r_toe			L_knee			L_shank_antsup			L_ankle			L_calc			L_5meta			L_toe			r_sh2			r_sh3			r_sh4			L_sh2			L_sh3			r_thigh1			r_thigh2			r_thigh3			r_thigh4			r_thigh5			L_thigh1			L_thigh2			L_thigh3			L_thigh4			r.ASIS			r.PSIS			L.ASIS			L.PSIS			C7			R_Shoulder			L_Shoulder			R_Sternum			L_Sternum			R_humerus			R_elbow_med			R_elbow_lat			R_forearm			R_wrist_radius			R_wrist_ulna			L_humerus			L_elbow_med			L_elbow_lat			L_forearm			L_wrist_radius			L_wrist_ulna			R_HJC			L_HJC			R_HJC_reg			L_HJC_reg			
		X1	Y1	Z1	X2	Y2	Z2	X3	Y3	Z3	X4	Y4	Z4	X5	Y5	Z5	X6	Y6	Z6	X7	Y7	Z7	X8	Y8	Z8	X9	Y9	Z9	X10	Y10	Z10	X11	Y11	Z11	X12	Y12	Z12	X13	Y13	Z13	X14	Y14	Z14	X15	Y15	Z15	X16	Y16	Z16	X17	Y17	Z17	X18	Y18	Z18	X19	Y19	Z19	X20	Y20	Z20	X21	Y21	Z21	X22	Y22	Z22	X23	Y23	Z23	X24	Y24	Z24	X25	Y25	Z25	X26	Y26	Z26	X27	Y27	Z27	X28	Y28	Z28	X29	Y29	Z29	X30	Y30	Z30	X31	Y31	Z31	X32	Y32	Z32	X33	Y33	Z33	X34	Y34	Z34	X35	Y35	Z35	X36	Y36	Z36	X37	Y37	Z37	X38	Y38	Z38	X39	Y39	Z39	X40	Y40	Z40	X41	Y41	Z41	X42	Y42	Z42	X43	Y43	Z43	X44	Y44	Z44	X45	Y45	Z45	X46	Y46	Z46	X47	Y47	Z47	X48	Y48	Z48	X49	Y49	Z49	X50	Y50	Z50	X51	Y51	Z51	

182	1.81000000	-103.68228	484.41745	-412.98928	-82.75746	381.25235	-415.51200	-282.10658	123.62634	-405.79557	-352.80356	102.99828	-461.14600	-195.68607	48.21686	-347.98993	-147.06348	68.04575	-395.47416	-66.44455	505.72642	-725.42354	-43.75970	410.48739	-719.65263	-232.05272	135.89067	-738.51005	-319.17895	116.60599	-690.34921	-160.19599	47.39471	-781.31288	-103.14729	59.25714	-730.23741	-131.84917	278.53500	-412.27818	-141.03622	409.39793	-375.37311	-198.37088	309.57205	-371.10941	-112.75103	455.78402	-757.25782	-164.63711	345.84042	-769.36308	-213.36097	740.49735	-386.30508	-144.99056	656.12057	-402.61979	-172.49851	599.01011	-375.14097	-300.71096	668.30790	-380.30684	-223.55507	581.71558	-394.23387	-144.42420	749.97790	-721.15718	-56.94158	641.93978	-702.04399	-218.47669	684.81187	-768.94402	-136.35044	581.67260	-745.45111	-233.09357	870.76367	-430.10146	-413.43689	942.42930	-525.06366	-197.31840	878.88095	-670.20684	-396.68552	948.41523	-619.98304	-247.03682	1379.64219	-558.29448	-181.23210	1408.20275	-443.23540	-165.83237	1399.94448	-641.34199	-120.05370	1311.90432	-516.88933	-113.05146	1312.18344	-562.77494	-117.81390	1449.75582	-395.36144	74.40056	1455.32703	-305.07114	33.58123	1489.34386	-254.80484	22.66628	1570.13991	-303.36572	41.15860	1675.11108	-420.88056	74.65921	1694.03671	-389.49913	-104.30869	1450.01717	-675.25601	88.17578	1496.28414	-716.11742	36.58402	1544.95147	-761.35489	12.08501	1595.01874	-708.95059	-5.37130	1681.71723	-567.55611	19.39909	1716.89959	-599.13073	-324.71454	800.65044	-465.02899	-297.09398	809.17357	-652.37234	-311.57492	809.77912	-482.28780	-283.76752	819.71467	-639.85420	
183	1.82000000	-110.87007	495.09526	-410.10041	-88.65699	391.60560	-412.32201	-278.74082	127.93894	-404.58389	-349.23407	110.23020	-460.44835	-194.34602	48.87746	-347.81113	-145.19503	67.86705	-394.83854	-73.83450	516.08473	-725.80290	-50.53765	421.30126	-720.65697	-228.30200	139.97782	-739.21180	-315.23203	123.84521	-690.79055	-158.76756	48.59111	-781.42090	-101.53700	58.94860	-730.34985	-134.29246	287.55686	-409.02091	-148.14509	417.81794	-372.49454	-201.97355	316.03299	-369.03432	-121.05282	463.99479	-757.84034	-169.04484	352.40676	-770.14557	-211.36042	756.17880	-385.54955	-145.95901	668.90123	-400.85786	-176.03662	613.33727	-372.78528	-301.28845	687.10877	-380.25524	-227.34828	597.42115	-392.78266	-141.12139	764.87951	-719.64921	-59.29474	652.26478	-701.70371	-218.39143	703.76681	-767.86258	-141.18855	596.49216	-746.65744	-228.99684	892.79271	-429.48938	-409.49942	961.01303	-525.02031	-191.98271	903.54205	-668.81738	-392.52027	967.94798	-619.95419	-253.37888	1402.45657	-557.11172	-187.80739	1434.54781	-445.35445	-174.03673	1424.32629	-639.53824	-123.81946	1338.65027	-516.82064	-117.49226	1338.63371	-562.89556	-125.64786	1479.76711	-398.70335	65.18022	1492.42402	-306.80373	22.94859	1527.08818	-257.70718	13.90583	1607.33406	-308.14615	38.75337	1712.18068	-425.11865	70.22381	1731.71897	-392.05291	-115.73154	1477.11387	-673.75597	74.90471	1529.73894	-720.56167	20.05750	1578.08874	-761.46110	-1.55223	1628.18467	-707.83121	-8.69421	1715.83909	-564.61625	11.57228	1751.42134	-598.35863	-318.57247	820.86926	-465.38547	-289.83725	831.34160	-652.46466	-305.48340	830.80032	-482.15765	-277.38817	842.27420	-639.24290	
184	1.83000000	-119.59497	506.33202	-406.94527	-95.56978	403.11753	-408.35094	-275.03259	132.76923	-402.97431	-345.08915	118.30335	-459.25069	-192.91901	49.29721	-348.01702	-143.08938	67.69437	-394.01344	-83.11025	527.50679	-726.79467	-58.60387	433.40330	-722.27517	-223.98382	144.99181	-740.28968	-310.16383	132.31573	-691.30549	-157.13652	49.96926	-781.60549	-99.62979	58.55933	-730.75070	-137.23753	297.39402	-405.53948	-156.49322	426.81196	-369.60657	-206.00750	323.08452	-366.86986	-130.70305	473.38942	-760.33501	-174.11339	359.45241	-771.46077	-209.62603	772.60637	-384.80700	-147.38375	682.52018	-398.99153	-180.18057	628.07538	-371.08011	-302.25100	707.01794	-380.07001	-231.98323	614.38065	-390.85393	-138.38649	780.79185	-718.06992	-62.75788	663.73134	-701.90062	-218.71495	724.31690	-767.04175	-146.99706	612.94374	-748.28696	-224.68378	915.69197	-428.61744	-405.39026	980.33253	-524.97275	-186.94676	929.02913	-667.74334	-388.28797	988.30008	-619.76473	-260.23912	1425.92964	-555.80021	-194.55387	1461.06737	-447.84526	-182.77615	1448.88495	-638.69795	-128.46035	1365.52658	-517.04032	-122.98358	1365.24086	-562.90303	-133.28915	1509.63320	-402.09773	55.97229	1527.65570	-307.56341	12.20185	1563.12311	-260.44471	4.96035	1642.66445	-312.51541	36.72961	1747.70557	-428.34532	66.44874	1767.55904	-393.82742	-126.66041	1503.81178	-672.46645	62.32832	1560.98328	-724.53143	4.90200	1609.27585	-761.15834	-13.74298	1659.56341	-706.62450	-11.33876	1748.91202	-563.01018	4.49586	1784.54056	-598.91257	-312.20600	841.98054	-465.64975	-282.65810	854.35662	-652.48691	-299.30870	852.35377	-481.90942	-270.99303	865.54421	-638.84915	
185	1.84000000	-129.92306	518.08804	-403.91216	-103.87018	415.85914	-404.04568	-270.84943	138.26797	-400.78196	-340.15821	127.47461	-457.58025	-191.26685	49.88297	-347.79973	-140.70749	67.44540	-392.92973	-94.50487	540.45880	-728.61647	-68.01480	446.94713	-724.35653	-218.98206	151.34826	-742.14067	-303.53763	142.50822	-692.45868	-155.15574	51.62330	-781.88278	-97.22191	58.26348	-731.39104	-140.90238	308.19476	-402.34546	-166.30641	436.59259	-366.76974	-210.93885	330.85866	-364.48278	-142.06080	483.75263	-763.45908	-179.94001	367.37628	-773.11180	-208.23381	789.56497	-384.10247	-149.62702	696.67747	-397.06056	-185.17973	643.44915	-369.64444	-303.69798	727.92586	-379.79810	-237.52461	632.45406	-388.80554	-136.38928	797.45211	-716.52821	-67.27656	676.30808	-702.33008	-219.27126	745.96673	-766.89978	-153.61778	630.65431	-749.77124	-220.18026	939.14356	-427.51136	-401.05447	1000.64067	-524.87004	-182.39659	955.11377	-666.80288	-384.03569	1009.52252	-619.16602	-267.49632	1449.69292	-554.86084	-201.55697	1487.80970	-449.72987	-191.61828	1473.23332	-638.12306	-133.77815	1391.99992	-517.04836	-128.89819	1392.01989	-562.90019	-140.79375	1538.93885	-405.99813	47.04351	1560.81948	-307.20979	1.65036	1597.47407	-263.09645	-3.61575	1676.26144	-316.33892	34.98894	1781.54406	-430.50421	63.46736	1801.14789	-394.77807	-136.97393	1529.73429	-671.40421	50.58961	1590.31003	-727.38724	-8.73839	1638.51130	-760.60793	-24.42851	1689.22062	-705.56190	-13.58492	1780.70908	-562.64289	-1.72822	1816.14657	-600.85025	-305.86058	863.91341	-465.74886	-275.86241	878.15094	-652.37997	-293.29603	874.65490	-481.37755	-264.95714	889.44603	-638.39332	
